<svg class="img-fluid" id="outputsvg" xmlns="http://www.w3.org/2000/svg" style="transform: matrix(0.769231, 0, 0, 0.769231, 0, 0); transform-origin: 50% 50%; cursor: move; transition: none 0s ease 0s;" width="1620" height="576" viewBox="0 0 16200 5760"><g id="l178VdKewD2OqCBLshtZXxS" fill="rgba(0,0,0,0)" style="transform: none;"><g><path id="p8PBIusy9" d="M0 2880 l0 -2880 8100 0 8100 0 0 2880 0 2880 -8100 0 -8100 0 0 -2880z m3189 2580 c131 -22 156 -21 347 6 156 22 484 19 652 -6 133 -20 356 -68 437 -95 83 -27 241 -86 275 -102 274 -127 547 -305 743 -486 l68 -62 -945 -945 c-902 -900 -946 -946 -946 -980 0 -34 44 -79 946 -980 l946 -945 -64 -58 c-99 -92 -287 -231 -415 -309 -119 -72 -341 -183 -423 -211 -25 -9 -76 -27 -115 -42 -102 -37 -320 -91 -475 -116 -197 -32 -533 -32 -748 1 -152 22 -155 22 -285 5 -73 -9 -226 -19 -342 -22 -183 -5 -229 -3 -355 17 -177 26 -423 86 -550 134 -52 20 -98 36 -102 36 -17 0 -296 140 -393 197 -191 113 -451 323 -562 453 -21 25 -61 70 -89 100 -67 73 -196 250 -277 380 -172 278 -301 638 -358 1000 -33 208 -33 534 0 735 90 551 316 1032 670 1425 228 253 533 486 796 609 28 13 82 39 121 57 224 105 589 200 884 228 109 10 438 -4 559 -24z m11661 -420 c311 -26 545 -117 701 -270 157 -154 247 -342 296 -620 20 -112 31 -1343 13 -1515 -33 -325 -155 -590 -341 -743 -188 -155 -351 -217 -669 -257 -148 -19 -285 -19 -438 0 -295 37 -459 93 -619 214 -194 146 -291 306 -362 594 -26 103 -32 149 -32 240 -1 61 -5 117 -11 124 -12 15 -3 1013 11 1183 45 530 220 814 592 962 122 49 305 87 424 88 39 1 88 5 110 10 42 9 134 7 325 -10z m-7590 -35 c124 -20 213 -50 320 -108 146 -78 258 -179 338 -304 23 -36 32 -43 60 -43 17 0 32 1 32 3 1 1 9 85 20 187 11 102 22 200 26 218 l6 32 220 0 219 0 -4 -1197 c-4 -1286 -3 -1274 -56 -1473 -84 -316 -310 -542 -641 -639 -321 -94 -744 -76 -1023 44 -144 62 -299 198 -371 327 -70 126 -126 357 -126 522 l0 66 238 -2 237 -3 7 -80 c23 -287 120 -418 345 -469 127 -28 406 -19 536 19 129 38 235 126 287 238 50 107 61 186 67 479 l6 266 -64 6 c-35 3 -149 8 -254 10 -185 6 -413 24 -565 47 -199 30 -437 126 -605 245 -186 132 -329 351 -371 572 -42 221 15 514 134 690 113 166 239 253 456 316 144 42 379 56 526 31z m2170 -1185 c5 -1111 6 -1178 24 -1230 32 -97 75 -168 140 -237 149 -158 351 -223 651 -210 l135 5 0 -244 0 -244 -27 -7 c-16 -5 -104 -8 -198 -7 -168 1 -171 1 -278 37 -140 47 -232 102 -332 198 -66 63 -88 79 -112 79 l-31 0 -6 -112 c-4 -62 -9 -130 -12 -150 l-6 -38 -218 0 c-218 0 -218 0 -223 23 -8 31 -9 3280 -1 3301 6 15 31 16 248 14 l241 -3 5 -1175z m3588 948 l-3 -223 -870 -5 -870 -5 -3 -1977 -2 -1978 -245 0 -245 0 0 2205 0 2205 1120 0 1120 0 -2 -222z"></path><path id="p1HOhqFtG1" d="M14395 4620 c-242 -34 -410 -183 -470 -415 -41 -162 -45 -233 -45 -909 0 -664 1 -685 41 -849 43 -177 133 -280 297 -340 121 -45 181 -52 427 -51 201 0 240 3 312 22 114 29 185 67 252 132 70 69 105 133 139 257 l26 98 4 691 c3 574 1 711 -12 805 -39 300 -149 452 -387 535 -70 24 -87 26 -299 29 -124 2 -252 0 -285 -5z"></path><path id="p1YUIJ0vQ" d="M7005 4544 c-104 -21 -131 -29 -173 -51 -130 -71 -184 -154 -203 -311 -23 -185 15 -325 117 -432 117 -123 259 -174 664 -239 36 -6 183 -13 327 -17 248 -7 263 -6 269 11 12 30 -15 293 -40 406 -66 287 -170 441 -380 559 -101 57 -223 79 -431 78 -71 0 -139 -2 -150 -4z"></path></g></g><g id="l7b6ymJO4pRvieK0MxNg5jS" fill="rgb(255,255,255)" style="transform: none;"><g><path id="piwDJ2rgV" d="M14470 5080 c0 -3 -35 -7 -77 -9 -306 -9 -615 -136 -766 -314 -157 -187 -228 -389 -258 -737 -12 -142 -24 -1214 -14 -1239 4 -9 9 -68 11 -131 8 -201 82 -451 178 -599 114 -176 301 -317 506 -380 234 -73 569 -99 830 -66 318 40 481 102 669 257 186 153 308 418 341 743 18 173 7 1463 -13 1575 -49 278 -139 466 -296 620 -112 110 -277 193 -467 234 -44 10 -97 21 -119 26 -22 5 -75 10 -118 11 -43 2 -80 6 -83 10 -6 10 -324 8 -324 -1z m479 -514 c237 -83 348 -235 387 -535 13 -94 15 -227 12 -775 l-4 -661 -27 -98 c-33 -124 -68 -188 -138 -257 -67 -65 -138 -103 -252 -132 -69 -18 -112 -21 -282 -22 -214 -1 -279 7 -397 51 -164 60 -254 163 -297 340 -40 164 -41 187 -41 819 0 644 4 718 45 879 49 189 161 317 335 379 106 39 169 45 390 41 178 -3 201 -6 269 -29z"></path><path id="p19dTUYDT4" d="M6859 5034 c-225 -30 -417 -117 -524 -236 -161 -179 -235 -391 -235 -675 0 -199 46 -356 151 -513 116 -173 261 -286 499 -390 205 -90 480 -134 905 -146 105 -2 219 -7 254 -10 l64 -6 -6 -236 c-4 -159 -11 -262 -22 -312 -62 -287 -252 -410 -636 -410 -340 0 -489 140 -517 485 l-7 80 -267 3 -268 2 0 -96 c0 -195 51 -417 126 -552 43 -77 134 -175 223 -242 181 -136 478 -202 836 -186 190 8 264 19 395 57 223 66 397 186 510 354 89 131 134 255 167 460 14 88 17 253 20 1328 l4 1227 -255 0 -255 0 0 -27 c0 -16 -9 -113 -20 -218 -11 -104 -20 -192 -21 -194 0 -2 -19 22 -41 55 -95 134 -183 213 -329 291 -164 88 -318 123 -530 122 -69 -1 -168 -7 -221 -15z m461 -524 c101 -13 173 -34 236 -70 212 -119 320 -281 382 -570 24 -111 47 -325 36 -341 -8 -14 -418 -5 -529 12 -288 43 -434 83 -557 149 -72 39 -163 135 -194 205 -54 124 -51 294 8 413 34 67 77 109 160 155 42 22 69 30 173 51 37 7 220 5 285 -4z"></path><path id="pQNXLu4z2" d="M8906 5014 c-8 -21 -8 -3331 0 -3361 l6 -23 248 0 248 0 6 38 c3 20 8 88 12 150 l6 113 82 -79 c150 -144 328 -222 546 -240 104 -8 270 -2 328 13 l22 5 0 281 0 282 -32 -7 c-18 -4 -80 -9 -138 -13 -376 -21 -653 142 -756 447 -18 52 -19 119 -24 1230 l-5 1175 -271 3 c-243 2 -272 1 -278 -14z"></path><path id="pIFapU9Jh" d="M10749 5016 c-2 -2 -3 -1008 -1 -2235 l2 -2231 275 0 275 0 2 1978 3 1977 870 5 870 5 3 253 2 252 -1148 0 c-632 0 -1151 -2 -1153 -4z"></path></g></g><g id="l60RA1eW9fGiY0Jg3gNzqSH" fill="rgb(87,56,163)" style="transform: none;"><g><path id="p8CTkRGlq" d="M3438 5485 c-2 -2 -68 -6 -148 -9 -85 -3 -146 -10 -148 -16 -2 -5 -15 -10 -28 -10 -13 0 -24 -4 -24 -10 0 -5 -20 -10 -44 -10 -28 0 -46 -5 -49 -14 -3 -8 -27 -17 -56 -21 -28 -4 -51 -11 -51 -16 0 -5 -11 -9 -24 -9 -14 0 -28 -4 -31 -10 -3 -5 -16 -10 -28 -10 -13 0 -30 -8 -39 -19 -8 -10 -39 -24 -67 -32 -28 -7 -51 -16 -51 -21 0 -4 -9 -8 -19 -8 -11 0 -23 -4 -26 -10 -3 -5 -15 -10 -26 -10 -10 0 -19 -4 -19 -10 0 -5 -9 -10 -19 -10 -10 0 -21 -7 -25 -15 -3 -8 -22 -23 -43 -33 -21 -9 -47 -25 -57 -34 -11 -10 -28 -21 -39 -24 -10 -3 -27 -12 -36 -19 -67 -56 -212 -155 -225 -155 -9 0 -16 -5 -16 -11 0 -11 -56 -66 -141 -139 -63 -54 -159 -148 -159 -156 0 -3 -13 -16 -28 -29 -15 -13 -34 -35 -41 -49 -8 -14 -19 -26 -25 -26 -6 -1 -22 -23 -35 -50 -13 -28 -28 -50 -33 -50 -4 0 -8 -6 -8 -14 0 -8 -9 -18 -20 -21 -11 -3 -20 -12 -20 -20 0 -20 -63 -114 -77 -114 -7 -1 -13 -9 -13 -19 0 -11 -9 -27 -20 -37 -11 -10 -20 -24 -20 -32 0 -7 -4 -13 -10 -13 -5 0 -10 -7 -10 -16 0 -24 -62 -145 -77 -151 -7 -3 -13 -16 -13 -29 0 -25 -54 -164 -77 -199 -7 -11 -13 -30 -13 -42 0 -14 -6 -23 -15 -23 -11 0 -15 -11 -15 -37 0 -39 -39 -174 -54 -184 -4 -4 -12 -40 -16 -80 -5 -41 -16 -110 -25 -154 -21 -99 -37 -349 -33 -513 2 -67 0 -122 -4 -122 -5 0 -8 -18 -8 -40 0 -22 5 -40 10 -40 6 0 10 -21 10 -46 0 -65 21 -238 30 -244 11 -7 50 -169 50 -207 0 -18 4 -33 9 -33 5 0 15 -26 21 -57 18 -91 32 -132 46 -137 8 -3 14 -11 14 -18 1 -7 9 -31 20 -53 11 -22 19 -52 20 -66 0 -14 11 -39 25 -55 14 -16 25 -41 25 -56 0 -16 4 -28 9 -28 13 0 61 -88 61 -111 0 -11 7 -19 15 -19 9 0 15 -9 15 -25 0 -14 6 -25 13 -25 13 -1 47 -62 47 -85 0 -8 7 -15 15 -15 9 0 18 -12 22 -30 3 -16 9 -30 14 -30 5 0 9 -7 9 -15 0 -8 7 -15 16 -15 9 0 23 -17 32 -40 9 -22 23 -40 30 -40 6 0 12 -9 12 -20 0 -11 4 -20 10 -20 5 0 53 -51 106 -113 53 -61 103 -113 110 -115 7 -2 16 -12 19 -23 4 -10 10 -19 14 -19 11 0 60 -41 98 -82 19 -20 45 -39 59 -42 13 -4 24 -12 24 -19 0 -18 154 -132 291 -215 108 -66 239 -132 319 -162 19 -7 53 -21 76 -31 22 -11 45 -19 51 -19 7 0 18 -7 26 -15 8 -8 37 -20 64 -27 26 -7 50 -16 53 -20 3 -4 44 -17 92 -28 72 -17 97 -19 153 -11 37 6 88 7 115 4 31 -4 79 2 141 17 118 27 355 104 434 140 102 47 229 109 245 119 8 6 51 32 95 58 99 58 300 208 380 282 33 31 75 68 93 83 24 20 32 35 32 60 0 30 -72 105 -947 980 l-948 948 948 948 c919 919 947 948 947 985 0 20 -4 37 -8 37 -5 0 -49 37 -98 82 -244 223 -558 412 -886 533 -111 41 -343 107 -350 100z"></path><path id="pYxUsIYY5" d="M873 4700 l-33 -35 31 -3 c39 -4 41 -2 37 39 l-3 33 -32 -34z"></path></g></g><g id="l65Ebd0f2aOP93rgd3tqmRv" fill="rgb(109,95,181)" style="transform: none;"><g><path id="p3hwPiHPL" d="M2600 5514 c-294 -28 -660 -123 -884 -228 -39 -18 -93 -44 -121 -57 -99 -46 -289 -162 -390 -237 -91 -68 -321 -269 -324 -282 -1 -3 -33 -39 -72 -80 -278 -294 -519 -741 -624 -1160 -64 -258 -79 -384 -79 -670 0 -217 3 -277 23 -400 57 -363 186 -722 358 -1000 81 -130 210 -307 277 -380 28 -30 68 -75 89 -100 111 -130 371 -340 562 -453 97 -57 376 -197 393 -197 4 0 50 -16 102 -36 131 -49 336 -100 520 -129 126 -20 191 -25 345 -25 105 1 235 5 290 11 55 5 129 12 165 16 66 6 62 21 -7 22 -18 1 -33 4 -33 9 0 4 -19 8 -41 8 -23 1 -44 5 -48 10 -3 5 -19 10 -35 11 -16 1 -32 6 -35 10 -3 5 -28 14 -54 21 -27 7 -56 19 -64 27 -8 8 -19 15 -26 15 -6 0 -29 8 -51 19 -23 10 -57 24 -76 31 -80 30 -211 96 -319 162 -129 78 -261 174 -261 189 0 6 -5 7 -11 4 -6 -4 -13 2 -16 14 -3 12 -16 24 -28 27 -13 3 -39 22 -58 42 -38 41 -87 82 -98 82 -4 0 -10 9 -14 19 -3 11 -12 21 -19 23 -7 2 -57 54 -110 116 -53 61 -101 112 -106 112 -5 0 -7 7 -3 16 3 10 -1 17 -13 20 -11 3 -27 23 -36 45 -9 22 -23 39 -32 39 -9 0 -16 7 -16 15 0 8 -4 15 -9 15 -5 0 -11 14 -14 30 -4 18 -13 30 -22 30 -9 0 -13 5 -10 10 3 6 -2 22 -13 38 -10 15 -22 35 -25 45 -4 11 -12 15 -18 11 -7 -4 -10 -3 -7 2 9 15 -11 56 -23 48 -7 -4 -9 -3 -5 4 8 13 -58 135 -68 125 -4 -4 -4 0 -1 9 7 18 -5 47 -31 72 -8 9 -17 29 -19 45 -2 16 -13 50 -24 75 -12 25 -21 49 -21 55 0 5 -7 14 -15 19 -9 4 -17 18 -18 30 -1 12 -5 22 -10 22 -5 0 -7 7 -3 15 6 18 -24 125 -36 125 -4 0 -5 6 -3 12 7 20 -50 240 -59 231 -5 -4 -6 9 -3 30 3 20 2 37 -3 37 -4 0 -6 17 -3 39 3 23 1 41 -6 45 -6 4 -11 35 -11 71 0 41 -4 65 -12 68 -9 4 -10 8 -3 14 7 5 11 71 10 178 0 229 5 367 15 386 5 9 12 38 15 65 4 27 13 76 22 108 8 33 13 70 10 83 -2 13 0 20 6 16 6 -4 8 2 5 15 -4 12 -2 20 3 16 5 -3 9 3 9 14 0 10 11 52 25 93 14 41 24 84 22 96 -2 12 -1 20 4 18 10 -7 17 5 23 37 2 14 9 34 15 44 26 44 78 180 73 192 -2 7 3 19 12 25 19 15 86 149 80 159 -3 5 2 8 11 8 9 0 13 5 10 10 -4 6 5 24 19 41 15 17 24 35 20 40 -3 5 -1 8 4 7 11 -3 85 100 85 119 0 7 9 15 19 19 10 3 18 11 18 19 0 7 4 15 8 17 12 5 57 82 54 91 -1 5 2 6 7 3 5 -4 19 10 31 29 12 19 32 43 46 54 13 10 24 22 24 25 0 8 94 100 159 156 87 75 146 133 143 143 -1 4 2 6 7 2 8 -4 151 94 232 160 9 7 26 16 36 19 11 3 28 14 39 24 10 9 36 25 57 34 21 10 40 24 43 32 3 8 12 12 20 9 7 -3 16 2 20 10 3 8 13 13 23 10 11 -3 21 2 24 11 4 9 16 16 27 16 11 0 20 5 20 11 0 5 5 7 10 4 6 -4 16 -2 23 3 7 5 28 15 49 21 20 7 39 18 42 26 3 8 16 15 30 15 14 0 27 4 31 10 3 5 12 7 19 4 7 -3 20 1 27 8 8 7 21 14 29 15 44 7 76 17 85 27 6 6 28 12 50 13 22 1 41 6 43 12 2 5 9 8 16 5 8 -3 20 2 29 10 9 9 31 16 51 16 40 0 86 15 86 28 0 21 -217 44 -435 47 -121 2 -240 1 -265 -1z"></path></g></g><g id="l4DDFLdXyRYgwVgGN4pNSAg" fill="rgb(239,93,174)" style="transform: none;"><g><path id="pX2eNNAts" d="M3470 5491 c-131 -20 -137 -14 65 -65 374 -94 816 -333 1095 -592 41 -38 86 -77 100 -87 l25 -17 -965 -965 -965 -965 964 -964 964 -964 -34 -29 c-19 -15 -61 -53 -94 -84 -80 -74 -281 -224 -380 -282 -44 -26 -87 -52 -95 -58 -16 -10 -143 -72 -245 -119 -82 -38 -317 -113 -452 -145 -62 -15 -113 -30 -113 -34 0 -4 62 -16 138 -27 201 -28 584 -25 772 5 155 25 373 79 475 116 39 15 90 33 115 42 82 28 304 139 423 211 139 85 321 222 431 324 l78 73 -963 963 -964 962 964 963 963 962 -83 78 c-206 191 -476 369 -759 500 -34 16 -192 75 -275 102 -81 27 -304 75 -437 95 -180 26 -572 27 -748 1z"></path><path id="p175NdJmVo" d="M1581 4309 c-7 -12 -10 -23 -8 -26 3 -3 11 5 17 17 15 28 8 35 -9 9z"></path><path id="pnjqbIJed" d="M1266 3669 c-10 -27 -16 -52 -13 -55 2 -3 12 18 21 47 22 67 15 74 -8 8z"></path><path id="p179SKiCan" d="M1191 3403 c-16 -59 -25 -109 -18 -103 8 8 37 133 32 138 -2 2 -8 -14 -14 -35z"></path><path id="pCZ6nQeqt" d="M1172 2275 c0 -11 3 -29 8 -40 11 -25 11 1 0 35 -6 20 -8 21 -8 5z"></path><path id="p16ylkH4Xw" d="M1400 1598 c0 -14 31 -77 41 -83 6 -4 1 13 -11 36 -23 46 -30 56 -30 47z"></path></g></g></svg>